SplineFontDB: 3.0
FontName: Apple410
FullName: Apple410
FamilyName: Apple410
Weight: Regular
Copyright: Copyright (c) 2017, Adam Mayer,,,
UComments: "2017-12-27: Created with FontForge (http://fontforge.org)"
Version: 001.000
ItalicAngle: 0
UnderlinePosition: -80.8828
UnderlineWidth: 40.4414
Ascent: 649
Descent: 163
InvalidEm: 0
LayerCount: 2
Layer: 0 0 "Back" 1
Layer: 1 0 "Fore" 0
XUID: [1021 79 -1873639176 13539870]
StyleMap: 0x0000
FSType: 0
OS2Version: 0
OS2_WeightWidthSlopeOnly: 0
OS2_UseTypoMetrics: 1
CreationTime: 1514394572
ModificationTime: 1514404806
OS2TypoAscent: 0
OS2TypoAOffset: 1
OS2TypoDescent: 0
OS2TypoDOffset: 1
OS2TypoLinegap: 73
OS2WinAscent: 0
OS2WinAOffset: 1
OS2WinDescent: 0
OS2WinDOffset: 1
HheadAscent: 0
HheadAOffset: 1
HheadDescent: 0
HheadDOffset: 1
MarkAttachClasses: 1
DEI: 91125
LangName: 1033
Encoding: ISO8859-1
UnicodeInterp: none
NameList: AGL For New Fonts
DisplaySize: -48
AntiAlias: 1
FitToEm: 0
WinInfo: 29 29 8
BeginPrivate: 0
EndPrivate
BeginChars: 256 95

StartChar: bar
Encoding: 124 124 0
Width: 812
VWidth: 0
Flags: HW
LayerCount: 2
Fore
SplineSet
6 643 m 1
 0 643 l 1
 0 110 l 1
 6 110 l 1
 13 110 l 1
 13 643 l 1
 6 643 l 1
EndSplineSet
EndChar

StartChar: zero
Encoding: 48 48 1
Width: 812
VWidth: 0
Flags: HW
LayerCount: 2
Fore
SplineSet
97 117 m 1
 13 180 l 1
 13 573 l 1
 97 636 l 1
 268 636 l 1
 351 573 l 1
 351 180 l 1
 268 117 l 1
 97 117 l 1
94 110 m 1
 94 104 l 1
 270 104 l 1
 273 104 l 1
 274 105 l 1
 362 172 l 1
 365 174 l 1
 365 177 l 1
 365 576 l 1
 365 580 l 1
 362 582 l 1
 274 648 l 1
 273 649 l 1
 270 649 l 1
 94 649 l 1
 92 649 l 1
 90 648 l 1
 2 582 l 1
 0 580 l 1
 0 576 l 1
 0 177 l 1
 0 174 l 1
 2 172 l 1
 90 105 l 1
 94 110 l 1
EndSplineSet
EndChar

StartChar: semicolon
Encoding: 59 59 2
Width: 812
VWidth: 0
Flags: HW
LayerCount: 2
Fore
SplineSet
13 317 m 1
 13 370 l 1
 88 370 l 1
 88 317 l 1
 13 317 l 1
6 304 m 1
 94 304 l 1
 102 304 l 1
 102 310 l 1
 102 377 l 1
 102 383 l 1
 94 383 l 1
 6 383 l 1
 0 383 l 1
 0 377 l 1
 0 310 l 1
 0 304 l 1
 6 304 l 1
75 104 m 1
 2 49 l 1
 6 44 l 1
 10 39 l 1
 98 105 l 1
 102 107 l 1
 102 110 l 1
 102 177 l 1
 102 184 l 1
 94 184 l 1
 6 184 l 1
 0 184 l 1
 0 177 l 1
 0 110 l 1
 0 104 l 1
 6 104 l 1
 75 104 l 1
88 117 m 1
 13 117 l 1
 13 170 l 1
 88 170 l 1
 88 117 l 1
75 104 m 1
 2 49 l 1
 6 44 l 1
 10 39 l 1
 98 105 l 1
 102 107 l 1
 102 110 l 1
 102 177 l 1
 102 184 l 1
 94 184 l 1
 6 184 l 1
 0 184 l 1
 0 177 l 1
 0 110 l 1
 0 104 l 1
 6 104 l 1
 75 104 l 1
88 117 m 1
 13 117 l 1
 13 170 l 1
 88 170 l 1
 88 117 l 1
EndSplineSet
EndChar

StartChar: o
Encoding: 111 111 3
Width: 812
VWidth: 0
Flags: HW
LayerCount: 2
Fore
SplineSet
97 117 m 1
 13 180 l 1
 13 373 l 1
 97 437 l 1
 268 437 l 1
 351 373 l 1
 351 180 l 1
 268 117 l 1
 97 117 l 1
94 110 m 1
 94 104 l 1
 270 104 l 1
 273 104 l 1
 274 105 l 1
 362 172 l 1
 365 174 l 1
 365 177 l 1
 365 377 l 1
 365 380 l 1
 362 382 l 1
 274 449 l 1
 273 450 l 1
 270 450 l 1
 94 450 l 1
 92 450 l 1
 90 449 l 1
 2 382 l 1
 0 380 l 1
 0 377 l 1
 0 177 l 1
 0 174 l 1
 2 172 l 1
 90 105 l 1
 94 110 l 1
EndSplineSet
EndChar

StartChar: parenright
Encoding: 41 41 4
Width: 812
VWidth: 0
Flags: HW
LayerCount: 2
Fore
SplineSet
6 643 m 1
 2 638 l 1
 90 572 l 1
 176 441 l 1
 176 312 l 1
 90 182 l 1
 2 116 l 1
 6 110 l 1
 10 105 l 1
 98 172 l 1
 99 172 l 1
 100 174 l 1
 188 307 l 1
 189 308 l 1
 189 310 l 1
 189 443 l 1
 189 446 l 1
 188 447 l 1
 100 580 l 1
 99 581 l 1
 98 582 l 1
 10 648 l 1
 6 643 l 1
EndSplineSet
EndChar

StartChar: v
Encoding: 118 118 5
Width: 812
VWidth: 0
Flags: HW
LayerCount: 2
Fore
SplineSet
6 443 m 1
 1 440 l 1
 177 107 l 1
 182 96 l 1
 188 107 l 1
 364 440 l 1
 358 443 l 1
 352 446 l 1
 182 124 l 1
 13 446 l 1
 6 443 l 1
EndSplineSet
EndChar

StartChar: x
Encoding: 120 120 6
Width: 812
VWidth: 0
Flags: HW
LayerCount: 2
Fore
SplineSet
6 110 m 1
 11 105 l 1
 362 439 l 1
 358 443 l 1
 354 448 l 1
 2 115 l 1
 6 110 l 1
6 443 m 1
 2 439 l 1
 354 105 l 1
 358 110 l 1
 362 115 l 1
 11 448 l 1
 6 443 l 1
6 443 m 1
 2 439 l 1
 354 105 l 1
 358 110 l 1
 362 115 l 1
 11 448 l 1
 6 443 l 1
EndSplineSet
EndChar

StartChar: braceright
Encoding: 125 125 7
Width: 812
VWidth: 0
Flags: HW
LayerCount: 2
Fore
SplineSet
6 110 m 1
 10 105 l 1
 98 172 l 1
 102 174 l 1
 102 177 l 1
 102 307 l 1
 186 371 l 1
 193 377 l 1
 186 382 l 1
 102 446 l 1
 102 576 l 1
 102 580 l 1
 98 582 l 1
 10 648 l 1
 6 643 l 1
 2 638 l 1
 88 573 l 1
 88 443 l 1
 88 440 l 1
 90 438 l 1
 171 377 l 1
 90 316 l 1
 88 313 l 1
 88 310 l 1
 88 180 l 1
 2 116 l 1
 6 110 l 1
EndSplineSet
EndChar

StartChar: exclam
Encoding: 33 33 8
Width: 812
VWidth: 0
Flags: HW
LayerCount: 2
Fore
SplineSet
6 643 m 1
 0 643 l 1
 0 243 l 1
 6 243 l 1
 13 243 l 1
 13 643 l 1
 6 643 l 1
6 110 m 1025
6 110 m 1025
EndSplineSet
EndChar

StartChar: V
Encoding: 86 86 9
Width: 812
VWidth: 0
Flags: HW
LayerCount: 2
Fore
SplineSet
6 643 m 1
 0 641 l 1
 176 109 l 1
 182 90 l 1
 189 109 l 1
 365 641 l 1
 358 643 l 1
 352 645 l 1
 182 132 l 1
 13 645 l 1
 6 643 l 1
EndSplineSet
EndChar

StartChar: B
Encoding: 66 66 10
Width: 812
VWidth: 0
Flags: HW
LayerCount: 2
Fore
SplineSet
282 377 m 1
 362 438 l 1
 365 440 l 1
 365 443 l 1
 365 576 l 1
 365 580 l 1
 362 582 l 1
 274 648 l 1
 273 649 l 1
 270 649 l 1
 6 649 l 1
 0 649 l 1
 0 643 l 1
 0 376 l 1
 0 110 l 1
 6 110 l 1
 6 104 l 1
 270 104 l 1
 273 104 l 1
 274 105 l 1
 362 172 l 1
 365 174 l 1
 365 177 l 1
 365 310 l 1
 365 313 l 1
 362 316 l 1
 282 377 l 1
13 383 m 1
 13 636 l 1
 268 636 l 1
 351 573 l 1
 351 446 l 1
 268 383 l 1
 13 383 l 1
13 370 m 1
 268 370 l 1
 351 307 l 1
 351 180 l 1
 268 117 l 1
 13 117 l 1
 13 370 l 1
EndSplineSet
EndChar

StartChar: M
Encoding: 77 77 11
Width: 812
VWidth: 0
Flags: HW
LayerCount: 2
Fore
SplineSet
6 110 m 1
 13 110 l 1
 13 611 l 1
 176 241 l 1
 182 227 l 1
 189 241 l 1
 351 611 l 1
 351 110 l 1
 358 110 l 1
 365 110 l 1
 365 643 l 1
 365 675 l 1
 352 645 l 1
 182 260 l 1
 13 645 l 1
 0 675 l 1
 0 643 l 1
 0 110 l 1
 6 110 l 1
EndSplineSet
EndChar

StartChar: bracketleft
Encoding: 91 91 12
Width: 812
VWidth: 0
Flags: HW
LayerCount: 2
Fore
SplineSet
358 643 m 1
 358 649 l 1
 182 649 l 1
 176 649 l 1
 176 643 l 1
 176 110 l 1
 176 104 l 1
 182 104 l 1
 358 104 l 1
 358 110 l 1
 358 117 l 1
 189 117 l 1
 189 636 l 1
 358 636 l 1
 358 643 l 1
EndSplineSet
EndChar

StartChar: J
Encoding: 74 74 13
Width: 812
VWidth: 0
Flags: HW
LayerCount: 2
Fore
SplineSet
277 649 m 1
 182 649 l 1
 182 636 l 1
 263 636 l 1024
277 636 m 1
 358 636 l 1
 358 643 l 1
 358 649 l 1
 270 649 l 1
 182 649 l 2
 182 648 181 636 182 636 c 2
 263 636 l 1
 263 180 l 1
 180 117 l 1
 97 117 l 1
 10 182 l 1
 6 177 l 1
 2 172 l 1
 90 105 l 1
 92 104 l 1
 94 104 l 1
 182 104 l 1
 185 104 l 1
 186 105 l 1
 274 172 l 1
 277 174 l 1
 277 177 l 1
 277 636 l 1
EndSplineSet
EndChar

StartChar: two
Encoding: 50 50 14
Width: 812
VWidth: 0
Flags: HW
LayerCount: 2
Fore
SplineSet
6 576 m 1
 10 571 l 1
 97 636 l 1
 268 636 l 1
 351 573 l 1
 351 447 l 1
 3 249 l 1
 0 247 l 1
 0 243 l 1
 0 110 l 1
 0 104 l 1
 6 104 l 1
 358 104 l 1
 358 110 l 1
 358 117 l 1
 13 117 l 1
 13 239 l 1
 362 438 l 1
 365 439 l 1
 365 443 l 1
 365 576 l 1
 365 580 l 1
 362 582 l 1
 274 648 l 1
 273 649 l 1
 270 649 l 1
 94 649 l 1
 92 649 l 1
 90 648 l 1
 2 582 l 1
 6 576 l 1
EndSplineSet
EndChar

StartChar: k
Encoding: 107 107 15
Width: 812
VWidth: 0
Flags: HW
LayerCount: 2
Fore
SplineSet
0 315 m 1
 0 110 l 1
 1 110 13 109 13 110 c 0
 13 305 l 1024
172 380 m 1
 13 320 l 1
 13 643 l 1
 0 643 l 1
 0 110 l 1
 13 110 l 1
 13 305 l 1
 180 369 l 1
 353 107 l 1
 364 114 l 1
 193 373 l 1
 361 437 l 1
 356 450 l 1
 172 380 l 1
EndSplineSet
EndChar

StartChar: parenleft
Encoding: 40 40 16
Width: 812
VWidth: 0
Flags: HW
LayerCount: 2
Fore
SplineSet
358 643 m 1
 354 648 l 1
 266 582 l 1
 266 581 l 1
 265 580 l 1
 177 447 l 1
 176 446 l 1
 176 443 l 1
 176 310 l 1
 176 308 l 1
 177 307 l 1
 265 174 l 1
 266 172 l 1
 266 172 l 1
 354 105 l 1
 358 110 l 1
 362 116 l 1
 275 182 l 1
 189 312 l 1
 189 441 l 1
 275 572 l 1
 362 638 l 1
 358 643 l 1
EndSplineSet
EndChar

StartChar: Z
Encoding: 90 90 17
Width: 812
VWidth: 0
Flags: HW
LayerCount: 2
Fore
SplineSet
6 643 m 1
 6 636 l 1
 346 636 l 1
 1 114 l 1
 -6 104 l 1
 6 104 l 1
 358 104 l 1
 358 110 l 1
 358 117 l 1
 19 117 l 1
 364 639 l 1
 370 649 l 1
 358 649 l 1
 6 649 l 1
 6 643 l 1
EndSplineSet
EndChar

StartChar: at
Encoding: 64 64 18
Width: 812
VWidth: 0
Flags: HW
LayerCount: 2
Fore
SplineSet
263 297 m 1
 263 243 l 1
 263 230 l 1
 274 239 l 1
 362 304 l 1
 365 307 l 1
 365 310 l 1
 365 576 l 1
 365 580 l 1
 362 582 l 1
 274 648 l 1
 273 649 l 1
 270 649 l 1
 94 649 l 1
 92 649 l 1
 90 648 l 1
 2 582 l 1
 0 580 l 1
 0 576 l 1
 0 177 l 1
 0 174 l 1
 2 172 l 1
 90 105 l 1
 92 104 l 1
 94 104 l 1
 270 104 l 1
 273 104 l 1
 274 105 l 1
 362 172 l 1
 358 177 l 1
 354 182 l 1
 268 117 l 1
 97 117 l 1
 13 180 l 1
 13 573 l 1
 97 636 l 1
 268 636 l 1
 351 573 l 1
 351 313 l 1
 277 257 l 1
 277 304 l 1
 277 510 l 1
 277 516 l 1
 270 516 l 1
 182 516 l 1
 180 516 l 1
 178 515 l 1
 90 449 l 1
 88 446 l 1
 88 443 l 1
 88 243 l 1
 88 237 l 1
 94 237 l 1
 182 237 l 1
 185 237 l 1
 186 239 l 1
 263 297 l 1
263 313 m 1
 180 251 l 1
 102 251 l 1
 102 440 l 1
 185 504 l 1
 263 504 l 1
 263 313 l 1
EndSplineSet
EndChar

StartChar: E
Encoding: 69 69 19
Width: 812
VWidth: 0
Flags: HW
LayerCount: 2
Fore
SplineSet
13 370 m 1
 270 370 l 1
 270 383 l 1
 13 383 l 1
 13 370 l 1
0 370 m 1
 0 104 l 1
 358 104 l 1
 358 117 l 1
 13 117 l 1
 13 370 l 1
 270 370 l 2
 270 371 271 383 270 383 c 2
 13 383 l 1
 13 636 l 1
 358 636 l 1
 358 649 l 1
 0 649 l 1
 0 370 l 1
EndSplineSet
EndChar

StartChar: colon
Encoding: 58 58 20
Width: 812
VWidth: 0
Flags: HW
LayerCount: 2
Fore
SplineSet
13 317 m 1
 13 370 l 1
 88 370 l 1
 88 317 l 1
 13 317 l 1
6 304 m 1
 94 304 l 1
 102 304 l 1
 102 310 l 1
 102 377 l 1
 102 383 l 1
 94 383 l 1
 6 383 l 1
 0 383 l 1
 0 377 l 1
 0 310 l 1
 0 304 l 1
 6 304 l 1
13 170 m 1
 88 170 l 1
 88 117 l 1
 13 117 l 1
 13 170 l 1
6 177 m 1
 0 177 l 1
 0 110 l 1
 0 104 l 1
 6 104 l 1
 94 104 l 1
 102 104 l 1
 102 110 l 1
 102 177 l 1
 102 184 l 1
 94 184 l 1
 6 184 l 1
 6 177 l 1
13 170 m 1
 88 170 l 1
 88 117 l 1
 13 117 l 1
 13 170 l 1
6 177 m 1
 0 177 l 1
 0 110 l 1
 0 104 l 1
 6 104 l 1
 94 104 l 1
 102 104 l 1
 102 110 l 1
 102 177 l 1
 102 184 l 1
 94 184 l 1
 6 184 l 1
 6 177 l 1
EndSplineSet
EndChar

StartChar: bracketright
Encoding: 93 93 21
Width: 812
VWidth: 0
Flags: HW
LayerCount: 2
Fore
SplineSet
6 110 m 1
 6 104 l 1
 182 104 l 1
 189 104 l 1
 189 110 l 1
 189 643 l 1
 189 649 l 1
 182 649 l 1
 6 649 l 1
 6 643 l 1
 6 636 l 1
 176 636 l 1
 176 117 l 1
 6 117 l 1
 6 110 l 1
EndSplineSet
EndChar

StartChar: y
Encoding: 121 121 22
Width: 807
VWidth: 0
Flags: HW
LayerCount: 2
Fore
SplineSet
178 124 m 0
 348 446 l 1
 360 440 l 1
 186 110 l 1
 184 107 l 1
 178 96 l 1
 178 98 l 1
 8 -159 l 1
 -3 -152 l 1
 170 111 l 8
 170 111 2 439 1 439 c 0
 0 439 13 447 13 445 c 0
 13 443 178 124 178 124 c 0
EndSplineSet
EndChar

StartChar: R
Encoding: 82 82 23
Width: 812
VWidth: 0
Flags: HW
LayerCount: 2
Fore
SplineSet
6 110 m 1
 13 110 l 1
 13 370 l 1
 178 370 l 1
 353 107 l 1
 358 110 l 1
 364 114 l 1
 195 370 l 1
 270 370 l 1
 273 370 l 1
 274 371 l 1
 362 438 l 1
 365 440 l 1
 365 443 l 1
 365 576 l 1
 365 580 l 1
 362 582 l 1
 274 648 l 1
 273 649 l 1
 270 649 l 1
 6 649 l 1
 0 649 l 1
 0 643 l 1
 0 376 l 1
 0 110 l 1
 6 110 l 1
13 383 m 1
 13 636 l 1
 268 636 l 1
 351 573 l 1
 351 446 l 1
 268 383 l 1
 187 383 l 1
 13 383 l 1
EndSplineSet
EndChar

StartChar: T
Encoding: 84 84 24
Width: 812
VWidth: 0
Flags: HW
LayerCount: 2
Fore
SplineSet
190 636 m 0
 358 636 l 1
 358 649 l 1
 176 649 l 1025
6 643 m 1
 6 636 l 1
 176 636 l 1
 176 110 l 1
 182 110 l 1
 189 110 l 1
 189 636 l 1
 358 636 l 2
 358 637 359 649 358 649 c 2
 182 649 l 1
 6 649 l 1
 6 643 l 1
EndSplineSet
EndChar

StartChar: h
Encoding: 104 104 25
Width: 812
VWidth: 0
Flags: HW
LayerCount: 2
Fore
SplineSet
13 450 m 0
 13 643 l 1
 0 643 l 1
 0 437 l 1025
6 110 m 1
 13 110 l 1
 13 437 l 1
 268 437 l 1
 351 373 l 1
 351 110 l 1
 358 110 l 1
 365 110 l 1
 365 377 l 1
 365 380 l 1
 362 382 l 1
 274 449 l 1
 273 450 l 1
 270 450 l 1
 13 450 l 1
 13 643 l 2
 12 643 0 644 0 643 c 2
 0 442 l 1
 0 110 l 1
 6 110 l 1
EndSplineSet
EndChar

StartChar: S
Encoding: 83 83 26
Width: 812
VWidth: 0
Flags: HW
LayerCount: 2
Fore
SplineSet
6 177 m 1
 2 172 l 1
 90 105 l 1
 92 104 l 1
 94 104 l 1
 270 104 l 1
 273 104 l 1
 274 105 l 1
 362 172 l 1
 365 174 l 1
 365 177 l 1
 365 310 l 1
 365 313 l 1
 362 316 l 1
 274 382 l 1
 273 383 l 1
 270 383 l 1
 97 383 l 1
 13 446 l 1
 13 573 l 1
 97 636 l 1
 268 636 l 1
 354 571 l 1
 358 576 l 1
 362 582 l 1
 274 648 l 1
 273 649 l 1
 270 649 l 1
 94 649 l 1
 92 649 l 1
 90 648 l 1
 2 582 l 1
 0 580 l 1
 0 576 l 1
 0 443 l 1
 0 440 l 1
 2 438 l 1
 90 371 l 1
 92 370 l 1
 94 370 l 1
 268 370 l 1
 351 307 l 1
 351 180 l 1
 268 117 l 1
 97 117 l 1
 10 182 l 1
 6 177 l 1
EndSplineSet
EndChar

StartChar: asciitilde
Encoding: 126 126 27
Width: 812
VWidth: 0
Flags: HW
LayerCount: 2
Fore
SplineSet
6 510 m 1
 10 504 l 1
 96 569 l 1
 268 504 l 1
 271 502 l 1
 274 504 l 1
 362 571 l 1
 358 576 l 1
 354 582 l 1
 269 517 l 1
 97 583 l 1
 94 584 l 1
 90 582 l 1
 2 515 l 1
 6 510 l 1
EndSplineSet
EndChar

StartChar: comma
Encoding: 44 44 28
Width: 812
VWidth: 0
Flags: HW
LayerCount: 2
Fore
SplineSet
75 104 m 1
 2 49 l 1
 6 44 l 1
 10 39 l 1
 98 105 l 1
 102 107 l 1
 102 110 l 1
 102 177 l 1
 102 184 l 1
 94 184 l 1
 6 184 l 1
 0 184 l 1
 0 177 l 1
 0 110 l 1
 0 104 l 1
 6 104 l 1
 75 104 l 1
88 117 m 1
 13 117 l 1
 13 170 l 1
 88 170 l 1
 88 117 l 1
EndSplineSet
EndChar

StartChar: numbersign
Encoding: 35 35 29
Width: 812
VWidth: 0
Flags: HW
LayerCount: 2
Fore
SplineSet
6 110 m 1
 13 109 l 1
 189 641 l 1
 182 643 l 1
 176 645 l 1
 0 113 l 1
 6 110 l 1
358 643 m 1
 352 645 l 1
 176 113 l 1
 182 110 l 1
 189 109 l 1
 365 641 l 1
 358 643 l 1
358 310 m 1
 358 317 l 1
 6 317 l 1
 6 310 l 1
 6 304 l 1
 358 304 l 1
 358 310 l 1
6 443 m 1
 6 437 l 1
 358 437 l 1
 358 443 l 1
 358 450 l 1
 6 450 l 1
 6 443 l 1
358 643 m 1
 352 645 l 1
 176 113 l 1
 182 110 l 1
 189 109 l 1
 365 641 l 1
 358 643 l 1
358 310 m 1
 358 317 l 1
 6 317 l 1
 6 310 l 1
 6 304 l 1
 358 304 l 1
 358 310 l 1
6 443 m 1
 6 437 l 1
 358 437 l 1
 358 443 l 1
 358 450 l 1
 6 450 l 1
 6 443 l 1
358 310 m 1
 358 317 l 1
 6 317 l 1
 6 310 l 1
 6 304 l 1
 358 304 l 1
 358 310 l 1
6 443 m 1
 6 437 l 1
 358 437 l 1
 358 443 l 1
 358 450 l 1
 6 450 l 1
 6 443 l 1
6 443 m 1
 6 437 l 1
 358 437 l 1
 358 443 l 1
 358 450 l 1
 6 450 l 1
 6 443 l 1
EndSplineSet
EndChar

StartChar: less
Encoding: 60 60 30
Width: 812
VWidth: 0
Flags: HW
LayerCount: 2
Fore
SplineSet
358 510 m 1
 356 516 l 1
 4 383 l 1
 -12 377 l 1
 4 370 l 1
 356 237 l 1
 358 243 l 1
 361 250 l 1
 25 377 l 1
 361 504 l 1
 358 510 l 1
EndSplineSet
EndChar

StartChar: backslash
Encoding: 92 92 31
Width: 812
VWidth: 0
Flags: HW
LayerCount: 2
Fore
SplineSet
6 643 m 1
 1 639 l 1
 353 107 l 1
 358 110 l 1
 364 114 l 1
 12 646 l 1
 6 643 l 1
EndSplineSet
EndChar

StartChar: underscore
Encoding: 95 95 32
Width: 812
VWidth: 0
Flags: HW
LayerCount: 2
Fore
SplineSet
6 44 m 1
 6 37 l 1
 534 37 l 1
 534 44 l 1
 534 51 l 1
 6 51 l 1
 6 44 l 1
EndSplineSet
EndChar

StartChar: f
Encoding: 102 102 33
Width: 812
VWidth: 0
Flags: HW
LayerCount: 2
Fore
SplineSet
102 383 m 1
 6 383 l 1
 6 370 l 1
 88 370 l 1
 270 370 l 2
 270 371 271 383 270 383 c 2
 102 383 l 1
94 110 m 1
 102 110 l 1
 102 370 l 1
 270 370 l 1
 270 383 l 1
 102 383 l 1
 102 573 l 1
 185 636 l 1
 268 636 l 1
 354 571 l 1
 358 576 l 1
 362 582 l 1
 274 648 l 1
 273 649 l 1
 270 649 l 1
 182 649 l 1
 180 649 l 1
 178 648 l 1
 90 582 l 1
 88 580 l 1
 88 576 l 1
 88 383 l 1
 6 383 l 2
 6 382 5 370 6 370 c 2
 88 370 l 1
 88 110 l 1
 94 110 l 1
EndSplineSet
EndChar

StartChar: quotesingle
Encoding: 39 39 34
Width: 812
VWidth: 0
Flags: HW
LayerCount: 2
Fore
SplineSet
182 643 m 1
 177 646 l 1
 89 514 l 1
 94 510 l 1
 100 506 l 1
 188 639 l 1
 182 643 l 1
EndSplineSet
EndChar

StartChar: U
Encoding: 85 85 35
Width: 812
VWidth: 0
Flags: HW
LayerCount: 2
Fore
SplineSet
6 643 m 1
 0 643 l 1
 0 177 l 1
 0 174 l 1
 2 172 l 1
 90 105 l 1
 92 104 l 1
 94 104 l 1
 270 104 l 1
 273 104 l 1
 274 105 l 1
 362 172 l 1
 365 174 l 1
 365 177 l 1
 365 643 l 1
 358 643 l 1
 351 643 l 1
 351 180 l 1
 268 117 l 1
 97 117 l 1
 13 180 l 1
 13 643 l 1
 6 643 l 1
EndSplineSet
EndChar

StartChar: r
Encoding: 114 114 36
Width: 812
VWidth: 0
Flags: HW
LayerCount: 2
Fore
SplineSet
13 387 m 0
 13 443 l 1
 0 443 l 1
 0 367 l 1025
6 110 m 1
 13 110 l 1
 13 372 l 1
 184 437 l 1
 268 437 l 1
 354 371 l 1
 358 377 l 1
 362 382 l 1
 274 449 l 1
 273 450 l 1
 270 450 l 1
 182 450 l 1
 181 450 l 1
 180 450 l 1
 13 386 l 1
 13 443 l 2
 12 443 0 444 0 443 c 2
 0 379 l 1
 0 110 l 1
 6 110 l 1
EndSplineSet
EndChar

StartChar: six
Encoding: 54 54 37
Width: 812
VWidth: 0
Flags: HW
LayerCount: 2
Fore
SplineSet
13 390 m 1
 13 573 l 1
 97 636 l 1
 268 636 l 1
 354 571 l 1
 358 576 l 1
 362 582 l 1
 274 648 l 1
 273 649 l 1
 270 649 l 1
 94 649 l 1
 92 649 l 1
 90 648 l 1
 2 582 l 1
 0 580 l 1
 0 576 l 1
 0 381 l 1
 0 177 l 1
 0 174 l 1
 2 172 l 1
 90 105 l 1
 92 104 l 1
 94 104 l 1
 270 104 l 1
 273 104 l 1
 274 105 l 1
 362 172 l 1
 365 174 l 1
 365 177 l 1
 365 377 l 1
 365 380 l 1
 362 382 l 1
 274 449 l 1
 273 450 l 1
 270 450 l 1
 94 450 l 1
 92 450 l 1
 90 449 l 1
 13 390 l 1
13 373 m 1
 97 437 l 1
 268 437 l 1
 351 373 l 1
 351 180 l 1
 268 117 l 1
 97 117 l 1
 13 180 l 1
 13 373 l 1
EndSplineSet
EndChar

StartChar: A
Encoding: 65 65 38
Width: 812
VWidth: 0
Flags: HW
LayerCount: 2
Fore
SplineSet
275 383 m 1
 182 665 l 1
 0 113 l 1
 13 109 l 1
 99 370 l 1
 266 370 l 1
 352 109 l 1
 365 113 l 1
 275 383 l 1
104 383 m 1
 182 622 l 1
 261 383 l 1
 104 383 l 1
EndSplineSet
EndChar

StartChar: b
Encoding: 98 98 39
Width: 812
VWidth: 0
Flags: HW
LayerCount: 2
Fore
SplineSet
13 450 m 1
 13 643 l 1
 6 643 l 1
 0 643 l 1
 0 443 l 1
 0 110 l 1
 0 104 l 1
 6 104 l 1
 270 104 l 1
 273 104 l 1
 274 105 l 1
 362 172 l 1
 365 174 l 1
 365 177 l 1
 365 377 l 1
 365 380 l 1
 362 382 l 1
 274 449 l 1
 273 450 l 1
 270 450 l 1
 13 450 l 1
13 437 m 1
 268 437 l 1
 351 373 l 1
 351 180 l 1
 268 117 l 1
 13 117 l 1
 13 437 l 1
EndSplineSet
EndChar

StartChar: Y
Encoding: 89 89 40
Width: 812
VWidth: 0
Flags: HW
LayerCount: 2
Fore
SplineSet
344 634 m 1
 182 389 l 1
 12 646 l 1
 1 639 l 1
 176 375 l 1
 176 110 l 1
 189 110 l 1
 189 375 l 1
 248 464 l 1
 359 633 l 2
 361 637 361 637 362 638 c 0
 363 640 364 638 364 639 c 2
 353 646 l 1
 344 634 l 1
191 378 m 1
 247 487 l 2
 245 485 246 486 246 485 c 0
 246 484 246 485 242 479 c 2
 183 390 l 1
 191 378 l 1
EndSplineSet
EndChar

StartChar: G
Encoding: 71 71 41
Width: 812
VWidth: 0
Flags: HW
LayerCount: 2
Fore
SplineSet
270 310 m 1
 270 304 l 1
 351 304 l 1
 351 180 l 1
 268 117 l 1
 97 117 l 1
 13 180 l 1
 13 573 l 1
 97 636 l 1
 268 636 l 1
 354 571 l 1
 358 576 l 1
 362 582 l 1
 274 648 l 1
 273 649 l 1
 270 649 l 1
 94 649 l 1
 92 649 l 1
 90 648 l 1
 2 582 l 1
 0 580 l 1
 0 576 l 1
 0 177 l 1
 0 174 l 1
 2 172 l 1
 90 105 l 1
 92 104 l 1
 94 104 l 1
 270 104 l 1
 273 104 l 1
 274 105 l 1
 362 172 l 1
 365 174 l 1
 365 177 l 1
 365 310 l 1
 365 317 l 1
 358 317 l 1
 270 317 l 1
 270 310 l 1
EndSplineSet
EndChar

StartChar: grave
Encoding: 96 96 42
Width: 812
VWidth: 0
Flags: HW
LayerCount: 2
Fore
SplineSet
182 643 m 1
 177 639 l 1
 265 506 l 1
 270 510 l 1
 276 514 l 1
 188 646 l 1
 182 643 l 1
EndSplineSet
EndChar

StartChar: percent
Encoding: 37 37 43
Width: 812
VWidth: 0
Flags: HW
LayerCount: 2
Fore
SplineSet
171 576 m 1
 94 518 l 1
 17 576 l 1
 94 634 l 1
 171 576 l 1
186 582 m 1
 98 648 l 1
 94 651 l 1
 90 648 l 1
 2 582 l 1
 -5 576 l 1
 2 571 l 1
 90 504 l 1
 94 501 l 1
 98 504 l 1
 186 571 l 1
 193 576 l 1
 186 582 l 1
358 643 m 1
 353 646 l 1
 1 114 l 1
 6 110 l 1
 12 107 l 1
 364 639 l 1
 358 643 l 1
193 177 m 1
 270 236 l 1
 347 177 l 1
 270 119 l 1
 193 177 l 1
182 177 m 1
 178 172 l 1
 266 105 l 1
 270 102 l 1
 274 105 l 1
 362 172 l 1
 369 177 l 1
 362 182 l 1
 274 249 l 1
 270 252 l 1
 266 249 l 1
 178 182 l 1
 182 177 l 1
358 643 m 1
 353 646 l 1
 1 114 l 1
 6 110 l 1
 12 107 l 1
 364 639 l 1
 358 643 l 1
193 177 m 1
 270 236 l 1
 347 177 l 1
 270 119 l 1
 193 177 l 1
182 177 m 1
 178 172 l 1
 266 105 l 1
 270 102 l 1
 274 105 l 1
 362 172 l 1
 369 177 l 1
 362 182 l 1
 274 249 l 1
 270 252 l 1
 266 249 l 1
 178 182 l 1
 182 177 l 1
193 177 m 1
 270 236 l 1
 347 177 l 1
 270 119 l 1
 193 177 l 1
182 177 m 1
 178 172 l 1
 266 105 l 1
 270 102 l 1
 274 105 l 1
 362 172 l 1
 369 177 l 1
 362 182 l 1
 274 249 l 1
 270 252 l 1
 266 249 l 1
 178 182 l 1
 182 177 l 1
EndSplineSet
EndChar

StartChar: quotedbl
Encoding: 34 34 44
Width: 812
VWidth: 0
Flags: HW
LayerCount: 2
Fore
SplineSet
94 643 m 1
 88 643 l 1
 88 510 l 1
 94 510 l 1
 102 510 l 1
 102 643 l 1
 94 643 l 1
270 643 m 1
 263 643 l 1
 263 510 l 1
 270 510 l 1
 277 510 l 1
 277 643 l 1
 270 643 l 1
270 643 m 1
 263 643 l 1
 263 510 l 1
 270 510 l 1
 277 510 l 1
 277 643 l 1
 270 643 l 1
EndSplineSet
EndChar

StartChar: one
Encoding: 49 49 45
Width: 812
VWidth: 0
Flags: HW
LayerCount: 2
Fore
SplineSet
176 117 m 0
 94 117 l 1
 94 116 93 104 94 104 c 0
 189 104 l 1025
94 576 m 1
 98 571 l 1
 176 630 l 1
 176 117 l 1
 94 117 l 1
 94 104 l 1
 182 104 l 1
 270 104 l 1
 270 110 l 1
 270 117 l 1
 189 117 l 1
 189 643 l 1
 189 657 l 1
 178 648 l 1
 90 582 l 1
 94 576 l 1
EndSplineSet
EndChar

StartChar: m
Encoding: 109 109 46
Width: 812
VWidth: 0
Flags: HW
LayerCount: 2
Fore
SplineSet
13 387 m 0
 13 443 l 1
 0 443 l 1
 0 367 l 1025
176 381 m 1
 176 110 l 1
 177 110 189 109 189 110 c 0
 189 372 l 1024
6 110 m 1
 13 110 l 1
 13 372 l 1
 176 434 l 1
 176 379 l 1
 176 110 l 1
 189 110 l 1
 189 372 l 1
 351 434 l 1
 351 110 l 1
 358 110 l 1
 365 110 l 1
 365 443 l 1
 365 453 l 1
 356 450 l 1
 189 386 l 1
 189 443 l 1
 189 453 l 1
 180 450 l 1
 13 386 l 1
 13 443 l 2
 12 443 0 444 0 443 c 2
 0 379 l 1
 0 110 l 1
 6 110 l 1
EndSplineSet
EndChar

StartChar: period
Encoding: 46 46 47
Width: 812
VWidth: 0
Flags: HW
LayerCount: 2
Fore
SplineSet
13 117 m 1
 13 170 l 1
 88 170 l 1
 88 117 l 1
 13 117 l 1
6 110 m 1
 6 104 l 1
 94 104 l 1
 102 104 l 1
 102 110 l 1
 102 177 l 1
 102 184 l 1
 94 184 l 1
 6 184 l 1
 0 184 l 1
 0 177 l 1
 0 110 l 1
 6 110 l 1
EndSplineSet
EndChar

StartChar: w
Encoding: 119 119 48
Width: 812
VWidth: 0
Flags: HW
LayerCount: 2
Fore
SplineSet
6 443 m 1
 0 442 l 1
 88 109 l 1
 94 84 l 1
 101 109 l 1
 182 417 l 1
 264 109 l 1
 270 84 l 1
 277 109 l 1
 365 442 l 1
 358 443 l 1
 351 445 l 1
 270 136 l 1
 189 445 l 1
 182 469 l 1
 176 445 l 1
 94 136 l 1
 13 445 l 1
 6 443 l 1
EndSplineSet
EndChar

StartChar: asciicircum
Encoding: 94 94 49
Width: 812
VWidth: 0
Flags: HW
LayerCount: 2
Fore
SplineSet
94 576 m 1
 98 571 l 1
 182 634 l 1
 266 571 l 1
 270 576 l 1
 274 582 l 1
 186 648 l 1
 182 651 l 1
 178 648 l 1
 90 582 l 1
 94 576 l 1
EndSplineSet
EndChar

StartChar: eight
Encoding: 56 56 50
Width: 812
VWidth: 0
Flags: HW
LayerCount: 2
Fore
SplineSet
268 370 m 1
 351 307 l 1
 351 180 l 1
 268 117 l 1
 97 117 l 1
 13 180 l 1
 13 307 l 1
 97 370 l 1
 268 370 l 1
97 383 m 1
 13 446 l 1
 13 573 l 1
 97 636 l 1
 268 636 l 1
 351 573 l 1
 351 446 l 1
 268 383 l 1
 97 383 l 1
83 377 m 1
 2 316 l 1
 0 313 l 1
 0 310 l 1
 0 177 l 1
 0 174 l 1
 2 172 l 1
 90 105 l 1
 92 104 l 1
 94 104 l 1
 270 104 l 1
 273 104 l 1
 274 105 l 1
 362 172 l 1
 365 174 l 1
 365 177 l 1
 365 310 l 1
 365 313 l 1
 362 316 l 1
 282 377 l 1
 362 438 l 1
 365 440 l 1
 365 443 l 1
 365 576 l 1
 365 580 l 1
 362 582 l 1
 274 648 l 1
 273 649 l 1
 270 649 l 1
 94 649 l 1
 92 649 l 1
 90 648 l 1
 2 582 l 1
 0 580 l 1
 0 576 l 1
 0 443 l 1
 0 440 l 1
 2 438 l 1
 83 377 l 1
EndSplineSet
EndChar

StartChar: equal
Encoding: 61 61 51
Width: 812
VWidth: 0
Flags: HW
LayerCount: 2
Fore
SplineSet
6 443 m 1
 6 437 l 1
 358 437 l 1
 358 443 l 1
 358 450 l 1
 6 450 l 1
 6 443 l 1
6 310 m 1
 6 304 l 1
 358 304 l 1
 358 310 l 1
 358 317 l 1
 6 317 l 1
 6 310 l 1
6 310 m 1
 6 304 l 1
 358 304 l 1
 358 310 l 1
 358 317 l 1
 6 317 l 1
 6 310 l 1
EndSplineSet
EndChar

StartChar: three
Encoding: 51 51 52
Width: 812
VWidth: 0
Flags: HW
LayerCount: 2
Fore
SplineSet
267 383 m 1
 94 383 l 2
 94 382 93 370 94 370 c 2
 267 370 l 2
 268 370 267 383 267 383 c 1
6 576 m 1
 10 571 l 1
 97 636 l 1
 268 636 l 1
 351 573 l 1
 351 446 l 1
 268 383 l 1
 94 383 l 1
 94 370 l 1
 268 370 l 1
 351 307 l 1
 351 180 l 1
 268 117 l 1
 97 117 l 1
 10 182 l 1
 6 177 l 1
 2 172 l 1
 90 105 l 1
 92 104 l 1
 94 104 l 1
 270 104 l 1
 273 104 l 1
 274 105 l 1
 362 172 l 1
 365 174 l 1
 365 177 l 1
 365 310 l 1
 365 313 l 1
 362 316 l 1
 282 377 l 1
 362 438 l 1
 365 440 l 1
 365 443 l 1
 365 576 l 1
 365 580 l 1
 362 582 l 1
 274 648 l 1
 273 649 l 1
 270 649 l 1
 94 649 l 1
 92 649 l 1
 90 648 l 1
 2 582 l 1
 6 576 l 1
EndSplineSet
EndChar

StartChar: e
Encoding: 101 101 53
Width: 812
VWidth: 0
Flags: HW
LayerCount: 2
Fore
SplineSet
13 237 m 1
 358 237 l 1
 365 237 l 1
 365 243 l 1
 365 377 l 1
 365 380 l 1
 362 382 l 1
 274 449 l 1
 273 450 l 1
 270 450 l 1
 94 450 l 1
 92 450 l 1
 90 449 l 1
 2 382 l 1
 0 380 l 1
 0 377 l 1
 0 243 l 1
 0 177 l 1
 0 174 l 1
 2 172 l 1
 90 105 l 1
 92 104 l 1
 94 104 l 1
 358 104 l 1
 358 110 l 1
 358 117 l 1
 97 117 l 1
 13 180 l 1
 13 237 l 1
13 251 m 1
 13 373 l 1
 97 437 l 1
 268 437 l 1
 351 373 l 1
 351 251 l 1
 13 251 l 1
EndSplineSet
EndChar

StartChar: t
Encoding: 116 116 54
Width: 812
VWidth: 0
Flags: HW
LayerCount: 2
Fore
SplineSet
102 437 m 0
 270 437 l 1
 270 450 l 1
 102 450 l 1
 102 576 l 1
 88 576 l 1
 88 450 l 1024
6 443 m 1
 6 437 l 1
 88 437 l 1
 88 177 l 1
 88 174 l 1
 90 172 l 1
 178 105 l 1
 180 104 l 1
 182 104 l 1
 270 104 l 1
 273 104 l 1
 274 105 l 1
 362 172 l 1
 358 177 l 1
 354 182 l 1
 268 117 l 1
 185 117 l 1
 102 180 l 1
 102 437 l 1
 270 437 l 2
 270 438 271 450 270 450 c 2
 102 450 l 1
 102 576 l 2
 101 576 88 577 88 576 c 2
 88 450 l 1
 6 450 l 1
 6 443 l 1
EndSplineSet
EndChar

StartChar: c
Encoding: 99 99 55
Width: 812
VWidth: 0
Flags: HW
LayerCount: 2
Fore
SplineSet
358 377 m 1
 362 382 l 1
 274 449 l 1
 273 450 l 1
 270 450 l 1
 94 450 l 1
 92 450 l 1
 90 449 l 1
 2 382 l 1
 0 380 l 1
 0 377 l 1
 0 177 l 1
 0 174 l 1
 2 172 l 1
 90 105 l 1
 92 104 l 1
 94 104 l 1
 270 104 l 1
 273 104 l 1
 274 105 l 1
 362 172 l 1
 358 177 l 1
 354 182 l 1
 268 117 l 1
 97 117 l 1
 13 180 l 1
 13 373 l 1
 97 437 l 1
 268 437 l 1
 354 371 l 1
 358 377 l 1
EndSplineSet
EndChar

StartChar: W
Encoding: 87 87 56
Width: 812
VWidth: 0
Flags: HW
LayerCount: 2
Fore
SplineSet
6 643 m 1
 0 642 l 1
 88 109 l 1
 94 75 l 1
 101 109 l 1
 182 479 l 1
 264 109 l 1
 271 75 l 1
 277 109 l 1
 365 642 l 1
 358 643 l 1
 351 644 l 1
 270 146 l 1
 189 511 l 1
 182 541 l 1
 176 511 l 1
 95 146 l 1
 13 644 l 1
 6 643 l 1
EndSplineSet
EndChar

StartChar: l
Encoding: 108 108 57
Width: 812
VWidth: 0
Flags: HW
LayerCount: 2
Fore
SplineSet
176 117 m 0
 94 117 l 1
 94 116 93 104 94 104 c 0
 189 104 l 1025
94 643 m 1
 94 636 l 1
 176 636 l 1
 176 117 l 1
 94 117 l 1
 94 104 l 1
 182 104 l 1
 270 104 l 1
 270 110 l 1
 270 117 l 1
 189 117 l 1
 189 643 l 1
 189 649 l 1
 182 649 l 1
 94 649 l 1
 94 643 l 1
EndSplineSet
EndChar

StartChar: ampersand
Encoding: 38 38 58
Width: 812
VWidth: 0
Flags: HW
LayerCount: 2
Fore
SplineSet
308 156 m 1
 353 106 l 1
 358 110 l 1
 363 115 l 1
 316 168 l 1
 364 240 l 1
 358 243 l 1
 353 247 l 1
 307 178 l 1
 122 389 l 1
 274 504 l 1
 277 507 l 1
 277 510 l 1
 277 576 l 1
 277 580 l 1
 274 582 l 1
 186 648 l 1
 185 649 l 1
 182 649 l 1
 94 649 l 1
 92 649 l 1
 90 648 l 1
 2 582 l 1
 0 580 l 1
 0 576 l 1
 0 510 l 1
 0 508 l 1
 2 505 l 1
 102 391 l 1
 2 316 l 1
 0 313 l 1
 0 310 l 1
 0 177 l 1
 0 174 l 1
 2 172 l 1
 90 105 l 1
 92 104 l 1
 94 104 l 1
 270 104 l 1
 274 104 l 1
 276 107 l 1
 308 156 l 1
113 399 m 1
 13 512 l 1
 13 573 l 1
 97 636 l 1
 180 636 l 1
 263 573 l 1
 263 513 l 1
 113 399 l 1
111 381 m 1
 300 167 l 1
 266 117 l 1
 97 117 l 1
 13 180 l 1
 13 307 l 1
 111 381 l 1
EndSplineSet
EndChar

StartChar: X
Encoding: 88 88 59
Width: 812
VWidth: 0
Flags: HW
LayerCount: 2
Fore
SplineSet
6 110 m 1
 12 107 l 1
 182 365 l 1
 353 107 l 1
 358 110 l 1
 364 114 l 1
 190 377 l 1
 364 639 l 1
 353 646 l 1
 182 389 l 1
 12 646 l 1
 1 639 l 1
 174 377 l 1
 1 114 l 1
 6 110 l 1
EndSplineSet
EndChar

StartChar: N
Encoding: 78 78 60
Width: 812
VWidth: 0
Flags: HW
LayerCount: 2
Fore
SplineSet
6 110 m 1
 13 110 l 1
 13 621 l 1
 353 107 l 1
 365 88 l 1
 365 110 l 1
 365 643 l 1
 358 643 l 1
 351 643 l 1
 351 132 l 1
 12 646 l 1
 0 665 l 1
 0 643 l 1
 0 110 l 1
 6 110 l 1
EndSplineSet
EndChar

StartChar: z
Encoding: 122 122 61
Width: 812
VWidth: 0
Flags: HW
LayerCount: 2
Fore
SplineSet
6 443 m 1
 6 437 l 1
 341 437 l 1
 2 115 l 1
 -10 104 l 1
 6 104 l 1
 358 104 l 1
 358 110 l 1
 358 117 l 1
 23 117 l 1
 362 439 l 1
 375 450 l 1
 358 450 l 1
 6 450 l 1
 6 443 l 1
EndSplineSet
EndChar

StartChar: hyphen
Encoding: 45 45 62
Width: 812
VWidth: 0
Flags: HW
LayerCount: 2
Fore
SplineSet
6 377 m 1
 6 370 l 1
 358 370 l 1
 358 377 l 1
 358 383 l 1
 6 383 l 1
 6 377 l 1
EndSplineSet
EndChar

StartChar: q
Encoding: 113 113 63
Width: 812
VWidth: 0
Flags: HW
LayerCount: 2
Fore
SplineSet
365 367 m 1
 365 443 l 1
 364 443 351 444 351 443 c 0
 351 387 l 1024
351 104 m 1
 351 -155 l 1
 358 -155 l 1
 365 -155 l 1
 365 110 l 1
 365 379 l 1
 365 443 l 1
 351 443 l 1
 351 386 l 1
 185 450 l 1
 184 450 l 1
 182 450 l 1
 94 450 l 1
 92 450 l 1
 90 449 l 1
 2 382 l 1
 0 380 l 1
 0 377 l 1
 0 177 l 1
 0 174 l 1
 2 172 l 1
 90 105 l 1
 92 104 l 1
 94 104 l 1
 351 104 l 1
351 117 m 1
 97 117 l 1
 13 180 l 1
 13 373 l 1
 97 437 l 1
 181 437 l 1
 351 372 l 1
 351 117 l 1
EndSplineSet
EndChar

StartChar: O
Encoding: 79 79 64
Width: 812
VWidth: 0
Flags: HW
LayerCount: 2
Fore
SplineSet
97 117 m 1
 13 180 l 1
 13 573 l 1
 97 636 l 1
 268 636 l 1
 351 573 l 1
 351 180 l 1
 268 117 l 1
 97 117 l 1
94 110 m 1
 94 104 l 1
 270 104 l 1
 273 104 l 1
 274 105 l 1
 362 172 l 1
 365 174 l 1
 365 177 l 1
 365 576 l 1
 365 580 l 1
 362 582 l 1
 274 648 l 1
 273 649 l 1
 270 649 l 1
 94 649 l 1
 92 649 l 1
 90 648 l 1
 2 582 l 1
 0 580 l 1
 0 576 l 1
 0 177 l 1
 0 174 l 1
 2 172 l 1
 90 105 l 1
 94 110 l 1
EndSplineSet
EndChar

StartChar: P
Encoding: 80 80 65
Width: 812
VWidth: 0
Flags: HW
LayerCount: 2
Fore
SplineSet
13 370 m 1
 270 370 l 1
 273 370 l 1
 274 371 l 1
 362 438 l 1
 365 440 l 1
 365 443 l 1
 365 576 l 1
 365 580 l 1
 362 582 l 1
 274 648 l 1
 273 649 l 1
 270 649 l 1
 6 649 l 1
 0 649 l 1
 0 643 l 1
 0 376 l 1
 0 110 l 1
 6 110 l 1
 13 110 l 1
 13 370 l 1
13 383 m 1
 13 636 l 1
 268 636 l 1
 351 573 l 1
 351 446 l 1
 268 383 l 1
 13 383 l 1
EndSplineSet
EndChar

StartChar: p
Encoding: 112 112 66
Width: 812
VWidth: 0
Flags: HW
LayerCount: 2
Fore
SplineSet
13 104 m 1
 270 104 l 1
 273 104 l 1
 274 105 l 1
 362 172 l 1
 365 174 l 1
 365 177 l 1
 365 377 l 1
 365 380 l 1
 362 382 l 1
 274 449 l 1
 273 450 l 1
 270 450 l 1
 6 450 l 1
 0 450 l 1
 0 443 l 1
 0 110 l 1
 0 -155 l 1
 6 -155 l 1
 13 -155 l 1
 13 104 l 1
13 117 m 1
 13 437 l 1
 268 437 l 1
 351 373 l 1
 351 180 l 1
 268 117 l 1
 13 117 l 1
EndSplineSet
EndChar

StartChar: d
Encoding: 100 100 67
Width: 812
VWidth: 0
Flags: HW
LayerCount: 2
Fore
SplineSet
351 450 m 1
 94 450 l 1
 92 450 l 1
 90 449 l 1
 2 382 l 1
 0 380 l 1
 0 377 l 1
 0 177 l 1
 0 174 l 1
 2 172 l 1
 90 105 l 1
 92 104 l 1
 94 104 l 1
 358 104 l 1
 365 104 l 1
 365 110 l 1
 365 443 l 1
 365 643 l 1
 358 643 l 1
 351 643 l 1
 351 450 l 1
351 437 m 1
 351 117 l 1
 97 117 l 1
 13 180 l 1
 13 373 l 1
 97 437 l 1
 351 437 l 1
EndSplineSet
EndChar

StartChar: five
Encoding: 53 53 68
Width: 812
VWidth: 0
Flags: HW
LayerCount: 2
Fore
SplineSet
6 177 m 1
 2 172 l 1
 90 105 l 1
 92 104 l 1
 94 104 l 1
 270 104 l 1
 273 104 l 1
 274 105 l 1
 362 172 l 1
 365 174 l 1
 365 177 l 1
 365 377 l 1
 365 380 l 1
 362 382 l 1
 274 449 l 1
 273 450 l 1
 270 450 l 1
 13 450 l 1
 13 636 l 1
 358 636 l 1
 358 643 l 1
 358 649 l 1
 6 649 l 1
 0 649 l 1
 0 643 l 1
 0 443 l 1
 0 437 l 1
 6 437 l 1
 268 437 l 1
 351 373 l 1
 351 180 l 1
 268 117 l 1
 97 117 l 1
 10 182 l 1
 6 177 l 1
EndSplineSet
EndChar

StartChar: a
Encoding: 97 97 69
Width: 812
VWidth: 0
Flags: HW
LayerCount: 2
Fore
SplineSet
351 167 m 1
 351 110 l 1
 358 110 l 1
 365 110 l 1
 365 174 l 1
 365 443 l 1
 365 450 l 1
 358 450 l 1
 182 450 l 1
 181 450 l 1
 180 450 l 1
 4 383 l 1
 0 381 l 1
 0 377 l 1
 0 177 l 1
 0 174 l 1
 2 172 l 1
 90 105 l 1
 92 104 l 1
 94 104 l 1
 182 104 l 1
 184 104 l 1
 185 104 l 1
 351 167 l 1
351 182 m 1
 181 117 l 1
 97 117 l 1
 13 180 l 1
 13 372 l 1
 184 437 l 1
 351 437 l 1
 351 182 l 1
EndSplineSet
EndChar

StartChar: n
Encoding: 110 110 70
Width: 812
VWidth: 0
Flags: HW
LayerCount: 2
Fore
SplineSet
13 385 m 0
 13 443 l 1
 0 443 l 1
 0 368 l 1025
6 110 m 1
 13 110 l 1
 13 372 l 1
 269 436 l 1
 351 373 l 1
 351 110 l 1
 358 110 l 1
 365 110 l 1
 365 377 l 1
 365 380 l 1
 362 382 l 1
 274 449 l 1
 272 450 l 1
 269 450 l 1
 13 385 l 1
 13 443 l 2
 12 443 0 444 0 443 c 2
 0 378 l 1
 0 110 l 1
 6 110 l 1
EndSplineSet
EndChar

StartChar: seven
Encoding: 55 55 71
Width: 812
VWidth: 0
Flags: HW
LayerCount: 2
Fore
SplineSet
6 576 m 1
 13 576 l 1
 13 636 l 1
 347 636 l 1
 89 113 l 1
 94 110 l 1
 101 108 l 1
 364 640 l 1
 369 649 l 1
 358 649 l 1
 6 649 l 1
 0 649 l 1
 0 643 l 1
 0 576 l 1
 6 576 l 1
EndSplineSet
EndChar

StartChar: u
Encoding: 117 117 72
Width: 812
VWidth: 0
Flags: HW
LayerCount: 2
Fore
SplineSet
6 443 m 1
 0 443 l 1
 0 177 l 1
 0 174 l 1
 2 172 l 1
 90 105 l 1
 92 104 l 1
 94 104 l 1
 270 104 l 1
 273 104 l 1
 274 105 l 1
 362 172 l 1
 365 174 l 1
 365 177 l 1
 365 443 l 1
 358 443 l 1
 351 443 l 1
 351 180 l 1
 268 117 l 1
 97 117 l 1
 13 180 l 1
 13 443 l 1
 6 443 l 1
EndSplineSet
EndChar

StartChar: s
Encoding: 115 115 73
Width: 812
VWidth: 0
Flags: HW
LayerCount: 2
Fore
SplineSet
6 177 m 1
 2 172 l 1
 90 105 l 1
 92 104 l 1
 94 104 l 1
 270 104 l 1
 273 104 l 1
 274 105 l 1
 362 172 l 1
 365 174 l 1
 365 177 l 1
 365 243 l 1
 365 249 l 1
 359 250 l 1
 13 316 l 1
 13 373 l 1
 97 437 l 1
 268 437 l 1
 354 371 l 1
 358 377 l 1
 362 382 l 1
 274 449 l 1
 273 450 l 1
 270 450 l 1
 94 450 l 1
 92 450 l 1
 90 449 l 1
 2 382 l 1
 0 380 l 1
 0 377 l 1
 0 310 l 1
 0 304 l 1
 6 304 l 1
 351 238 l 1
 351 180 l 1
 268 117 l 1
 97 117 l 1
 10 182 l 1
 6 177 l 1
EndSplineSet
EndChar

StartChar: H
Encoding: 72 72 74
Width: 812
VWidth: 0
Flags: HW
LayerCount: 2
Fore
SplineSet
365 370 m 1
 365 643 l 1
 351 643 l 1
 351 383 l 1024
13 383 m 0
 13 643 l 1
 0 643 l 1
 0 370 l 1025
13 370 m 1
 351 370 l 1
 351 110 l 1
 358 110 l 1
 365 110 l 1
 365 377 l 1
 365 643 l 2
 364 643 351 644 351 643 c 2
 351 383 l 1
 13 383 l 1
 13 643 l 2
 12 643 0 644 0 643 c 2
 0 376 l 1
 0 110 l 1
 6 110 l 1
 13 110 l 1
 13 370 l 1
EndSplineSet
EndChar

StartChar: nine
Encoding: 57 57 75
Width: 812
VWidth: 0
Flags: HW
LayerCount: 2
Fore
SplineSet
351 363 m 1
 351 180 l 1
 268 117 l 1
 97 117 l 1
 10 182 l 1
 6 177 l 1
 2 172 l 1
 90 105 l 1
 92 104 l 1
 94 104 l 1
 270 104 l 1
 273 104 l 1
 274 105 l 1
 362 172 l 1
 365 174 l 1
 365 177 l 1
 365 372 l 1
 365 576 l 1
 365 580 l 1
 362 582 l 1
 274 648 l 1
 273 649 l 1
 270 649 l 1
 94 649 l 1
 92 649 l 1
 90 648 l 1
 2 582 l 1
 0 580 l 1
 0 576 l 1
 0 377 l 1
 0 373 l 1
 2 371 l 1
 90 304 l 1
 92 304 l 1
 94 304 l 1
 270 304 l 1
 273 304 l 1
 274 304 l 1
 351 363 l 1
351 380 m 1
 268 317 l 1
 97 317 l 1
 13 380 l 1
 13 573 l 1
 97 636 l 1
 268 636 l 1
 351 573 l 1
 351 380 l 1
EndSplineSet
EndChar

StartChar: asterisk
Encoding: 42 42 76
Width: 812
VWidth: 0
Flags: HW
LayerCount: 2
Fore
SplineSet
195 370 m 0
 358 370 l 1
 358 383 l 1
 195 383 l 1
 276 506 l 1
 265 514 l 1
 182 389 l 1
 100 514 l 1
 89 506 l 1
 170 384 l 1024
182 365 m 1
 182 365 l 1
 182 365 l 1
 265 240 l 1
 276 247 l 1
 195 370 l 1
 358 370 l 2
 358 371 359 383 358 383 c 2
 195 383 l 1
 276 506 l 2
 275 506 265 515 265 514 c 2
 182 389 l 1
 100 514 l 2
 99 514 89 507 89 506 c 2
 170 383 l 1
 6 383 l 1
 6 370 l 1
 170 370 l 1
 170 370 l 1
 89 247 l 2
 90 247 100 239 100 240 c 2
 182 365 l 1
EndSplineSet
EndChar

StartChar: question
Encoding: 63 63 77
Width: 812
VWidth: 0
Flags: HW
LayerCount: 2
Fore
SplineSet
6 576 m 1
 10 571 l 1
 97 636 l 1
 268 636 l 1
 351 573 l 1
 351 446 l 1
 268 383 l 1
 182 383 l 1
 176 383 l 1
 176 377 l 1
 176 243 l 1
 182 243 l 1
 189 243 l 1
 189 370 l 1
 270 370 l 1
 273 370 l 1
 274 371 l 1
 362 438 l 1
 365 440 l 1
 365 443 l 1
 365 576 l 1
 365 580 l 1
 362 582 l 1
 274 648 l 1
 273 649 l 1
 270 649 l 1
 94 649 l 1
 92 649 l 1
 90 648 l 1
 2 582 l 1
 6 576 l 1
182 110 m 1025
182 110 m 1025
EndSplineSet
EndChar

StartChar: C
Encoding: 67 67 78
Width: 812
VWidth: 0
Flags: HW
LayerCount: 2
Fore
SplineSet
358 576 m 1
 362 582 l 1
 274 648 l 1
 273 649 l 1
 270 649 l 1
 94 649 l 1
 92 649 l 1
 90 648 l 1
 2 582 l 1
 0 580 l 1
 0 576 l 1
 0 177 l 1
 0 174 l 1
 2 172 l 1
 90 105 l 1
 92 104 l 1
 94 104 l 1
 270 104 l 1
 273 104 l 1
 274 105 l 1
 362 172 l 1
 358 177 l 1
 354 182 l 1
 268 117 l 1
 97 117 l 1
 13 180 l 1
 13 573 l 1
 97 636 l 1
 268 636 l 1
 354 571 l 1
 358 576 l 1
EndSplineSet
EndChar

StartChar: Q
Encoding: 81 81 79
Width: 812
VWidth: 0
Flags: HW
LayerCount: 2
Fore
SplineSet
90 105 m 1
 92 104 l 1
 94 104 l 1
 270 104 l 1
 273 104 l 1
 274 105 l 1
 362 172 l 1
 365 174 l 1
 365 177 l 1
 365 576 l 1
 365 580 l 1
 362 582 l 1
 274 648 l 1
 273 649 l 1
 270 649 l 1
 94 649 l 1
 92 649 l 1
 90 648 l 1
 2 582 l 1
 0 580 l 1
 0 576 l 1
 0 177 l 1
 0 174 l 1
 2 172 l 1
 90 105 l 1
97 117 m 1
 13 180 l 1
 13 573 l 1
 97 636 l 1
 268 636 l 1
 351 573 l 1
 351 180 l 1
 268 117 l 1
 97 117 l 1
182 243 m 1
 178 239 l 1
 354 105 l 1
 358 110 l 1
 362 116 l 1
 186 249 l 1
 182 243 l 1
182 243 m 1
 178 239 l 1
 354 105 l 1
 358 110 l 1
 362 116 l 1
 186 249 l 1
 182 243 l 1
EndSplineSet
EndChar

StartChar: greater
Encoding: 62 62 80
Width: 812
VWidth: 0
Flags: HW
LayerCount: 2
Fore
SplineSet
6 510 m 1
 4 504 l 1
 339 377 l 1
 4 250 l 1
 6 243 l 1
 9 237 l 1
 361 370 l 1
 377 377 l 1
 361 383 l 1
 9 516 l 1
 6 510 l 1
EndSplineSet
EndChar

StartChar: slash
Encoding: 47 47 81
Width: 812
VWidth: 0
Flags: HW
LayerCount: 2
Fore
SplineSet
6 110 m 1
 12 107 l 1
 364 639 l 1
 358 643 l 1
 353 646 l 1
 1 114 l 1
 6 110 l 1
EndSplineSet
EndChar

StartChar: i
Encoding: 105 105 82
Width: 812
VWidth: 0
Flags: HW
LayerCount: 2
Fore
SplineSet
170 576 m 0
 170 582 176 588 182 588 c 0
 188 588 194 582 194 576 c 0
 194 570 188 565 182 565 c 0
 176 565 170 570 170 576 c 0
182 576 m 1025
176 117 m 0
 94 117 l 1
 94 116 93 104 94 104 c 0
 189 104 l 1025
94 443 m 1
 94 437 l 1
 176 437 l 1
 176 117 l 1
 94 117 l 1
 94 104 l 1
 182 104 l 1
 270 104 l 1
 270 110 l 1
 270 117 l 1
 189 117 l 1
 189 443 l 1
 189 450 l 1
 182 450 l 1
 94 450 l 1
 94 443 l 1
176 117 m 0
 94 117 l 1
 94 116 93 104 94 104 c 0
 189 104 l 1025
94 443 m 1
 94 437 l 1
 176 437 l 1
 176 117 l 1
 94 117 l 1
 94 104 l 1
 182 104 l 1
 270 104 l 1
 270 110 l 1
 270 117 l 1
 189 117 l 1
 189 443 l 1
 189 450 l 1
 182 450 l 1
 94 450 l 1
 94 443 l 1
EndSplineSet
EndChar

StartChar: four
Encoding: 52 52 83
Width: 812
VWidth: 0
Flags: HW
LayerCount: 2
Fore
SplineSet
277 237 m 1
 358 237 l 1
 358 243 l 1
 358 251 l 1
 277 251 l 1
 277 643 l 1
 277 665 l 1
 265 646 l 1
 1 247 l 1
 -6 237 l 1
 6 237 l 1
 263 237 l 1
 263 110 l 1
 270 110 l 1
 277 110 l 1
 277 237 l 1
263 251 m 1
 19 251 l 1
 263 621 l 1
 263 251 l 1
EndSplineSet
EndChar

StartChar: D
Encoding: 68 68 84
Width: 812
VWidth: 0
Flags: HW
LayerCount: 2
Fore
SplineSet
13 117 m 1
 13 636 l 1
 268 636 l 1
 351 573 l 1
 351 180 l 1
 268 117 l 1
 13 117 l 1
6 110 m 1
 6 104 l 1
 270 104 l 1
 273 104 l 1
 274 105 l 1
 362 172 l 1
 365 174 l 1
 365 177 l 1
 365 576 l 1
 365 580 l 1
 362 582 l 1
 274 648 l 1
 273 649 l 1
 270 649 l 1
 6 649 l 1
 0 649 l 1
 0 643 l 1
 0 110 l 1
 6 110 l 1
EndSplineSet
EndChar

StartChar: I
Encoding: 73 73 85
Width: 812
VWidth: 0
Flags: HW
LayerCount: 2
Fore
SplineSet
189 649 m 1
 94 649 l 1
 94 636 l 1
 176 636 l 1024
176 104 m 1
 270 104 l 1
 270 105 271 117 270 117 c 0
 189 117 l 1024
94 110 m 1
 94 104 l 1
 182 104 l 1
 270 104 l 1
 270 117 l 1
 189 117 l 1
 189 636 l 1
 270 636 l 1
 270 643 l 1
 270 649 l 1
 182 649 l 1
 94 649 l 2
 94 648 93 636 94 636 c 2
 176 636 l 1
 176 117 l 1
 94 117 l 1
 94 110 l 1
EndSplineSet
EndChar

StartChar: j
Encoding: 106 106 86
Width: 812
VWidth: 0
Flags: HW
LayerCount: 2
Fore
SplineSet
347 576 m 0
 347 582 352 588 358 588 c 0
 364 588 370 582 370 576 c 0
 370 570 364 565 358 565 c 0
 352 565 347 570 347 576 c 0
6 -89 m 1
 2 -94 l 1
 90 -161 l 1
 92 -163 l 1
 94 -163 l 1
 270 -163 l 1
 273 -163 l 1
 274 -161 l 1
 362 -94 l 1
 365 -93 l 1
 365 -89 l 1
 365 443 l 1
 358 443 l 1
 351 443 l 1
 351 -86 l 1
 268 -149 l 1
 97 -149 l 1
 10 -84 l 1
 6 -89 l 1
358 576 m 1025
358 576 m 1025
EndSplineSet
EndChar

StartChar: F
Encoding: 70 70 87
Width: 812
VWidth: 0
Flags: HW
LayerCount: 2
Fore
SplineSet
13 370 m 1
 270 370 l 2
 270 371 271 383 270 383 c 2
 13 383 l 2
 12 383 13 370 13 370 c 1
0 370 m 1
 0 110 l 1
 13 110 l 1
 13 370 l 1
 270 370 l 1
 270 383 l 1
 13 383 l 1
 13 636 l 1
 358 636 l 1
 358 649 l 1
 0 649 l 1
 0 370 l 1
EndSplineSet
EndChar

StartChar: g
Encoding: 103 103 88
Width: 812
VWidth: 0
Flags: HW
LayerCount: 2
Fore
SplineSet
365 367 m 1
 365 443 l 1
 364 443 351 444 351 443 c 0
 351 387 l 1024
351 104 m 1
 351 -86 l 1
 268 -149 l 1
 184 -149 l 1
 9 -83 l 1
 6 -89 l 1
 4 -95 l 1
 180 -162 l 1
 181 -163 l 1
 182 -163 l 1
 270 -163 l 1
 273 -163 l 1
 274 -161 l 1
 362 -94 l 1
 365 -93 l 1
 365 -89 l 1
 365 110 l 1
 365 379 l 1
 365 443 l 1
 351 443 l 1
 351 386 l 1
 185 450 l 1
 184 450 l 1
 182 450 l 1
 94 450 l 1
 92 450 l 1
 90 449 l 1
 2 382 l 1
 0 380 l 1
 0 377 l 1
 0 177 l 1
 0 174 l 1
 2 172 l 1
 90 105 l 1
 92 104 l 1
 94 104 l 1
 351 104 l 1
351 117 m 1
 97 117 l 1
 13 180 l 1
 13 373 l 1
 97 437 l 1
 181 437 l 1
 351 372 l 1
 351 117 l 1
EndSplineSet
EndChar

StartChar: braceleft
Encoding: 123 123 89
Width: 812
VWidth: 0
Flags: HW
LayerCount: 2
Fore
SplineSet
358 643 m 1
 354 648 l 1
 266 582 l 1
 263 580 l 1
 263 576 l 1
 263 446 l 1
 178 382 l 1
 171 377 l 1
 178 371 l 1
 263 307 l 1
 263 177 l 1
 263 174 l 1
 266 172 l 1
 354 105 l 1
 358 110 l 1
 362 116 l 1
 277 180 l 1
 277 310 l 1
 277 313 l 1
 274 316 l 1
 193 377 l 1
 274 438 l 1
 277 440 l 1
 277 443 l 1
 277 573 l 1
 362 638 l 1
 358 643 l 1
EndSplineSet
EndChar

StartChar: dollar
Encoding: 36 36 90
Width: 812
VWidth: 0
Flags: HW
LayerCount: 2
Fore
SplineSet
6 243 m 1
 2 239 l 1
 90 172 l 1
 92 170 l 1
 94 170 l 1
 270 170 l 1
 273 170 l 1
 274 172 l 1
 362 239 l 1
 365 240 l 1
 365 243 l 1
 365 310 l 1
 365 313 l 1
 362 316 l 1
 274 382 l 1
 273 383 l 1
 270 383 l 1
 97 383 l 1
 13 446 l 1
 13 507 l 1
 97 569 l 1
 268 569 l 1
 354 504 l 1
 358 510 l 1
 362 515 l 1
 274 582 l 1
 273 583 l 1
 270 583 l 1
 94 583 l 1
 92 583 l 1
 90 582 l 1
 2 515 l 1
 0 513 l 1
 0 510 l 1
 0 443 l 1
 0 440 l 1
 2 438 l 1
 90 371 l 1
 92 370 l 1
 94 370 l 1
 268 370 l 1
 351 307 l 1
 351 247 l 1
 268 184 l 1
 97 184 l 1
 10 249 l 1
 6 243 l 1
182 643 m 1
 176 643 l 1
 176 110 l 1
 182 110 l 1
 189 110 l 1
 189 643 l 1
 182 643 l 1
182 643 m 1
 176 643 l 1
 176 110 l 1
 182 110 l 1
 189 110 l 1
 189 643 l 1
 182 643 l 1
EndSplineSet
EndChar

StartChar: K
Encoding: 75 75 91
Width: 812
VWidth: 0
Flags: HW
LayerCount: 2
Fore
SplineSet
0 246 m 1
 0 110 l 2
 1 110 13 109 13 110 c 2
 13 241 l 2
 13 242 0 246 0 246 c 1
6 643 m 1
 0 643 l 1
 0 251 l 1
 0 110 l 1
 13 110 l 1
 13 241 l 1
 17 245 l 1
 181 431 l 1
 352 107 l 1
 358 110 l 1
 364 113 l 1
 190 442 l 1
 363 638 l 1
 353 647 l 1
 176 446 l 1
 13 261 l 1
 13 643 l 1
 6 643 l 1
EndSplineSet
EndChar

StartChar: L
Encoding: 76 76 92
Width: 812
VWidth: 0
Flags: HW
LayerCount: 2
Fore
SplineSet
6 643 m 1
 0 643 l 1
 0 110 l 1
 0 104 l 1
 6 104 l 1
 358 104 l 1
 358 110 l 1
 358 117 l 1
 13 117 l 1
 13 643 l 1
 6 643 l 1
EndSplineSet
EndChar

StartChar: plus
Encoding: 43 43 93
Width: 812
VWidth: 0
Flags: HW
LayerCount: 2
Fore
SplineSet
190 370 m 0
 358 370 l 1
 358 383 l 1
 189 383 l 1
 189 510 l 1
 176 510 l 1
 176 383 l 1024
6 377 m 1
 6 370 l 1
 176 370 l 1
 176 243 l 1
 182 243 l 1
 189 243 l 1
 189 370 l 1
 358 370 l 2
 358 371 359 383 358 383 c 2
 189 383 l 1
 189 510 l 2
 188 510 176 511 176 510 c 2
 176 383 l 1
 6 383 l 1
 6 377 l 1
EndSplineSet
EndChar

